<?xml version="1.0" standalone="no"?><!DOCTYPE svg PUBLIC "-//W3C//DTD SVG 1.1//EN" "http://www.w3.org/Graphics/SVG/1.1/DTD/svg11.dtd"><svg t="1734228068785" class="icon" viewBox="0 0 1024 1024" version="1.1" xmlns="http://www.w3.org/2000/svg" p-id="5260" xmlns:xlink="http://www.w3.org/1999/xlink" width="200" height="200"><path d="M883.396923 634.092308l88.221539-176.364308-184.635077-10.791385-14.178462-73.176615-152.812308 160.925538 92.553847-329.491692-85.385847 25.284923L499.003077 38.754462 370.845538 230.478769l-85.385846-25.284923 92.553846 329.491692-152.891076-160.925538-14.178462 73.176615-184.556308 10.791385 88.221539 176.443077-50.097231 51.515077 290.973538 80.817231-56.713846 94.759384 179.751385-40.172307-40.96 132.096 62.621538 30.089846v1.96923l2.048-1.024 2.12677 1.024v-1.96923l62.542769-30.089846-40.96-132.017231 173.292308 40.172307-56.792616-94.838153 291.052308-80.817231z" fill="#FF9F00" p-id="5261"></path></svg>